<svg height="200px" width="200px" version="1.1" xmlns="http://www.w3.org/2000/svg"
     viewBox="0 0 512 512" xml:space="preserve" fill="#000000">
    <g>
        <path fill="#DB4417"
              d="M279.044,88.039c82.427,11.241,145.944,81.906,145.944,167.418c0,21.378-3.98,41.824-11.222,60.651 l67.095,38.738c13.452-30.392,20.939-64.013,20.939-99.388c0-127.98-97.812-233.098-222.757-244.718V88.039z"/>
        <path fill="#FF9839"
              d="M98.235,316.109c-7.242-18.827-11.222-39.273-11.222-60.651c0-85.512,63.518-156.176,145.944-167.418 v-77.3C108.012,22.359,10.199,127.478,10.199,255.457c0,35.375,7.487,68.997,20.94,99.388L98.235,316.109z"/>
        <path fill="#FFD890"
              d="M391.489,356.465c-30.813,41.264-80.03,67.981-135.489,67.981s-104.677-26.717-135.489-67.981 l-66.832,38.586C98.031,459.211,172.099,501.258,256,501.258s157.969-42.047,202.322-106.207L391.489,356.465z"/>
        <g>
            <path fill="#4C1D1D"
                  d="M480.861,365.045c-1.772,0-3.533-0.462-5.1-1.367l-67.094-38.737 c-4.348-2.51-6.223-7.81-4.419-12.494c6.995-18.185,10.542-37.36,10.542-56.989c0-79.021-58.95-146.65-137.123-157.311 c-5.053-0.689-8.82-5.005-8.82-10.105v-77.3c0-2.869,1.209-5.605,3.33-7.539s4.964-2.878,7.814-2.616 c63.217,5.88,121.747,34.997,164.808,81.988C488.134,129.867,512,191.265,512,255.457c0,35.99-7.338,70.818-21.813,103.516 c-1.172,2.647-3.414,4.67-6.164,5.568C482.991,364.877,481.925,365.045,480.861,365.045z M426.228,311.525l49.663,28.674 c10.432-26.994,15.711-55.445,15.711-84.742c0-118.637-86.228-217.018-202.358-233.265v57.172 c39.11,7.352,74.824,27.657,101.34,57.797c28.763,32.694,44.603,74.705,44.603,118.296 C435.188,274.657,432.176,293.479,426.228,311.525z"/>
            <path fill="#4C1D1D"
                  d="M31.139,365.045c-1.064,0-2.131-0.166-3.163-0.503c-2.751-0.898-4.993-2.921-6.164-5.568 C7.338,326.275,0,291.447,0,255.457c0-64.192,23.866-125.59,67.205-172.885c43.061-46.992,101.59-76.108,164.808-81.988 c2.844-0.256,5.693,0.684,7.814,2.616c2.121,1.934,3.33,4.669,3.33,7.539v77.3c0,5.101-3.768,9.416-8.82,10.105 c-78.173,10.661-137.123,78.291-137.123,157.311c0,19.629,3.547,38.804,10.542,56.989c1.803,4.684-0.071,9.984-4.419,12.494 l-67.094,38.737C34.672,364.582,32.912,365.045,31.139,365.045z M222.757,22.192C106.627,38.44,20.398,136.82,20.398,255.457 c0,29.297,5.279,57.748,15.71,84.742l49.663-28.674c-5.948-18.046-8.959-36.868-8.959-56.068c0-43.591,15.84-85.604,44.603-118.296 c26.516-30.14,62.231-50.445,101.34-57.797V22.192H222.757z"/>
            <path fill="#4C1D1D"
                  d="M256,511.457c-84.065,0-162.834-41.349-210.711-110.606c-1.621-2.344-2.187-5.258-1.561-8.037 c0.625-2.78,2.385-5.171,4.852-6.596l66.832-38.586c4.478-2.584,10.179-1.411,13.272,2.73 c30.316,40.599,76.721,63.884,127.317,63.884s97.001-23.285,127.317-63.884c3.093-4.141,8.796-5.314,13.272-2.73l66.832,38.586 c2.467,1.424,4.227,3.816,4.852,6.596c0.624,2.779,0.059,5.693-1.561,8.037C418.834,470.109,340.065,511.457,256,511.457z M68.585,398.223c44.498,58.329,113.751,92.836,187.415,92.836s142.917-34.507,187.415-92.836l-49.38-28.51 c-15.506,18.688-34.848,34.246-56.394,45.293c-25.419,13.032-52.887,19.64-81.641,19.64c-28.754,0-56.221-6.608-81.641-19.64 c-21.547-11.047-40.889-26.605-56.394-45.293L68.585,398.223z"/>
            <path fill="#4C1D1D"
                  d="M252.154,345.29c-32.071-0.513-52.083-18.216-52.083-28.992c0-5.131,4.617-11.802,9.494-11.802 c7.183,0,13.341,19.243,42.59,20.526v-68.247c-22.835-7.953-47.466-16.421-47.466-49.261c0-32.327,24.374-43.617,47.466-45.669 v-7.697c0-2.822,2.823-5.387,6.671-5.387c3.335,0,6.669,2.566,6.669,5.387v7.184c18.217,0.77,40.538,6.671,40.538,16.934 c0,4.105-3.335,11.803-9.235,11.803c-5.388,0-12.572-8.467-31.302-9.493v58.497c21.809,7.953,45.157,18.729,45.157,53.879 c0,31.3-18.474,47.978-45.157,51.57v9.236c0,2.823-3.335,5.388-6.669,5.388c-3.848,0-6.671-2.566-6.671-5.388v-8.466H252.154z M253.179,234.71v-53.879c-15.395,1.54-27.966,8.21-27.966,24.63C225.213,223.163,238.042,229.065,253.179,234.71z M264.468,261.649v62.86c16.164-2.566,25.657-12.572,25.657-29.506C290.126,275.504,278.58,267.55,264.468,261.649z"/>
            <path fill="#4C1D1D"
                  d="M461.23,313.171c-0.807,0-1.627-0.096-2.445-0.298c-5.469-1.345-8.813-6.87-7.466-12.341 c3.719-15.117,5.605-30.749,5.605-46.46c0-5.632,4.567-10.199,10.199-10.199c5.632,0,10.199,4.567,10.199,10.199 c0,17.352-2.085,34.623-6.197,51.335C469.981,310.058,465.815,313.171,461.23,313.171z"/>
            <path fill="#4C1D1D"
                  d="M463.619,226.477c-4.812,0-9.094-3.421-10.013-8.322c-0.305-1.625-0.627-3.243-0.972-4.853 c-1.179-5.508,2.331-10.929,7.839-12.107c5.512-1.178,10.928,2.331,12.107,7.839c0.372,1.741,0.734,3.545,1.076,5.363 c1.038,5.536-2.609,10.865-8.145,11.905C464.877,226.42,464.243,226.477,463.619,226.477z"/>
        </g>
    </g>
</svg>